<svg xmlns="http://www.w3.org/2000/svg" width="722" height="333"><path d="M449.711-.386c2.638.011 5.276.017 7.914.021C539.19-.207 539.19-.207 550 7v2l-1.92.056C500.525 10.449 452.979 11.847 406 20l1.41 1.284c13.487 12.477 18.792 29.648 19.809 47.571 1.896 59.555-34.038 118.072-72.883 160.563a340.981 340.981 0 00-5.55 6.316c-4.05 4.638-8.36 8.988-12.723 13.329l-2.303 2.314A251.208 251.208 0 01319 265l-1.896 1.63c-14.406 12.31-29.679 23.43-45.993 33.088-2.845 1.712-5.168 3.342-7.463 5.759-3.614 3.444-7.581 5.257-12.085 7.336l-2.804 1.303C225.289 324.828 201.057 332.498 175 331v-2l-2 1c-27.65 4.063-55.832 3.433-83.69 3.323-4.579-.014-9.158-.009-13.737-.004-24.925.02-49.72-.307-74.573-2.319l-1-4c3.56-1.611 6.345-2.253 10.245-2.271 1.029-.01 2.058-.02 3.118-.032l3.364-.006 7.202-.069 3.808-.028c36.319-.297 72.595-2.19 108.263-9.594l-2.062-1.375c-12.131-10.84-16.932-27.108-18.106-42.889-2.797-55.467 30.205-110.05 64.664-150.94a306.882 306.882 0 004.07-4.983c6.964-8.547 14.728-16.32 22.497-24.125.554-.56 1.11-1.12 1.68-1.698C215.84 81.842 223.104 75.265 231 69c1.815-1.56 3.628-3.121 5.438-4.687 22.177-18.491 48.176-33.945 74.937-44.75l2.188-.89c13.886-5.385 28.192-8.685 42.815-11.303 2.7-.486 5.393-.996 8.087-1.507C392.828.614 420.959-.522 449.71-.387zm-157.82 70.98c-9.875 13.983-13.843 30.68-11.426 47.676 2.851 15.034 8.983 27.217 17.293 39.833C308.687 174.799 314.548 191.465 318 211c28.157-21.274 48.554-66.573 54.504-100.387 2.068-15.06 2.966-30.637-5.969-43.765C360.028 58.626 351.207 55.223 341 54c-14.784-1.253-39.354 4.598-49.11 16.594zM225 125c-28.12 30.375-53.872 73.39-54.375 115.813l-.043 2.605c.077 10.07 2.872 18.85 9.418 26.582 7.445 7.194 16.776 9.986 27 10 14.027-.947 33.567-5.05 44.117-14.996C262.348 251.483 265.213 234.064 264 217c-1.96-16.247-12.068-31.352-20.322-45.07-8.897-14.863-14.676-29.789-17.678-46.93h-1z" fill="#4BBFE1"/><path d="M407.188 21.145c13.631 12.544 19.003 29.6 20.03 47.71 1.897 59.555-34.037 118.072-72.882 160.563a340.981 340.981 0 00-5.55 6.316c-4.05 4.638-8.36 8.988-12.724 13.328l-2.302 2.315A251.208 251.208 0 01319 265l-1.896 1.63C305.927 276.18 294.228 284.842 282 293l-2.296 1.546-2.169 1.419-1.921 1.265L274 298l-2-1 1.73-1.293C294.826 279.441 312.442 257.139 316 230c.131-1.615.253-3.231.367-4.848 1.064-14.683 1.064-14.683 4.633-18.027l1.887-1.43c2.768-2.22 4.8-4.882 6.925-7.695l1.282-1.688c23.09-30.8 46.417-72.376 41.219-112.25C370.72 75.535 367.71 67.775 361 62c-12.282-8.01-25.009-7.967-38.898-5.059C315.174 58.616 308.592 61.33 302 64l-2.96 1.184L297 66c5.994-14.248 30.4-22.978 43.641-28.381 15.183-6.028 30.594-11.077 46.421-15.119l3.01-.774c12.419-3.039 12.419-3.039 17.115-.581zM263 45l2 1-2.379 2.16c-2.73 2.484-5.443 4.984-8.151 7.49a230.206 230.206 0 01-3.51 3.147C245.054 64.228 241.099 71.178 237 78l-1.285 2.086c-5.312 9.505-7.752 20.54-8.212 31.301-.517 11.55-2.74 16.944-10.893 24.931-3.008 3.142-5.512 6.656-8.048 10.182l-1.642 2.284c-18.695 26.537-34.904 59.026-35.295 92.029l-.043 2.605c.076 9.95 2.766 19.036 9.418 26.582 8.425 7.167 18.29 9.51 29.191 8.79 11.136-1.344 22-4.457 32.184-9.165L246 268l2 1c-23.451 26.823-70.992 42.657-105.281 46.238-3.638.122-6.078.098-9.344-1.613-14.587-16.122-18.558-36.06-17.54-57.21 3.439-50.598 32.748-98.749 64.66-136.618a306.882 306.882 0 004.071-4.984c6.964-8.547 14.728-16.32 22.496-24.126l1.682-1.697C215.84 81.842 223.104 75.265 231 69c1.815-1.56 3.628-3.121 5.438-4.688C244.838 57.27 253.962 51.188 263 45z" fill="#DE4F97"/><path d="M317 213h1c-.814 32.532-13.707 56.068-37.252 78.465-2.432 2.136-5.01 3.81-7.748 5.535-2.153 2.023-4.124 4.137-6.102 6.332-3.477 3.201-7.034 5.254-11.21 7.418l-2.495 1.296c-21.274 10.736-45.577 19.268-69.63 19.017l-2.506-.014c-2.02-.012-4.038-.03-6.057-.049v-2l-2 1c-27.65 4.063-55.832 3.433-83.69 3.323-4.579-.014-9.158-.009-13.737-.004-24.925.02-49.72-.307-74.573-2.319l-1-4c3.56-1.611 6.345-2.253 10.245-2.271 1.029-.01 2.058-.02 3.118-.032l3.364-.006 7.199-.068 3.807-.028C99.407 323.998 195.16 320.84 249 267a153.206 153.206 0 014.75-2.563c14.94-8.055 28.513-17.866 40.992-29.363a221.052 221.052 0 016.195-5.449c3.465-3.017 6.744-6.199 10-9.438l1.471-1.456c2.626-2.617 2.626-2.617 4.592-5.731z" fill="#6064AC"/><path d="M430.293-.203l4.986-.021c5.303-.02 10.606-.024 15.909-.026l2.72-.003c43.054-.037 43.054-.037 64.342 1.628l2.463.191C544.765 3.51 544.765 3.51 550 7v2l-1.92.056C504.538 10.332 461.177 11.863 418 18l-3.382.456C377.298 23.51 324.956 35.16 298 64l-1 2a68.233 68.233 0 01-4.063 1.938C281.36 73.552 270.815 81.752 261 90l-3.05 2.492c-10.014 8.286-19.1 17.46-28.201 26.727A592.177 592.177 0 01226 123c-1.046-22.97 6.621-44.87 22-62a316.494 316.494 0 0113-13l1.825-1.745c5.055-4.652 10.424-7.938 16.487-11.13l2.927-1.56A955.285 955.285 0 01291 29l2.485-1.292C326.222 10.856 363.575 4.223 400 1l2.753-.258c9.185-.794 18.33-.921 27.54-.945z" fill="#6263AB"/><path d="M451.684 225.886l3.539.016 3.818.01 4.022.025A3768.67 3768.67 0 01477 226c-1.306 4.278-2.952 7.99-5.153 11.879l-1.854 3.29-1.931 3.393-1.92 3.405C463.48 252.677 460.8 257.37 458 262l6 1 .837-2.19c1.116-2.697 2.375-5.199 3.772-7.76l1.54-2.821 1.601-2.917 1.555-2.857a330.159 330.159 0 013.163-5.65c1.578-2.776 1.578-2.776 2.755-5.72 1.343-2.913 2.42-4.897 4.777-7.085 4.843-1.222 9.421-.948 14.375-.625l3.965.137c3.225.117 6.44.282 9.66.488-.67 3.315-1.906 5.938-3.52 8.902-.52.962-1.042 1.923-1.58 2.914l-1.712 3.121-1.774 3.253a1234.596 1234.596 0 01-12.824 22.806 1858.178 1858.178 0 00-11.527 20.379 5755.916 5755.916 0 01-14.188 25.25l-1.613 2.853A3932.31 3932.31 0 01455 330h-29c6.948-14.38 14.747-28.327 23-42l-6-1-.78 2.093c-1.377 3.28-3.013 6.312-4.74 9.423l-1.031 1.864a3143.931 3143.931 0 01-3.261 5.87l-2.159 3.895c-2.006 3.62-4.017 7.238-6.029 10.855l-5 9h-29c1.505-3.762 3.024-7.01 4.984-10.516l1.813-3.253 1.953-3.481 2.027-3.63a7431.05 7431.05 0 015.215-9.32c1.554-2.776 3.105-5.554 4.656-8.331a7261.995 7261.995 0 0120.09-35.703 5333.6 5333.6 0 006.93-12.282l1.816-3.224c1.157-2.054 2.313-4.109 3.467-6.165l1.565-2.775 1.383-2.46c1.682-2.842 1.682-2.842 4.785-2.974zM687 226c-1.251 4.057-2.745 7.625-4.836 11.316l-1.707 3.032-1.832 3.214-1.902 3.368a4528.681 4528.681 0 01-13.164 23.082c-4.67 8.153-9.26 16.35-13.84 24.552l-1.688 3.022-1.585 2.84a541.057 541.057 0 01-3.805 6.648c-1.353 2.412-2.209 4.223-2.641 6.926 4.45-2.23 6.365-4.627 8.867-8.89l1.032-1.742A429.398 429.398 0 00653 298l1.821-3.19c1.788-3.176 3.55-6.365 5.304-9.56l1.94-3.512 2.985-5.4c7.642-13.843 15.354-27.646 23.263-41.338l1.4-2.43c3.162-5.445 3.162-5.445 4.287-6.57 2.073-.088 4.148-.107 6.223-.098l3.818.01 4.021.025c1.345.006 2.69.01 4.034.014 3.301.012 6.603.028 9.904.049-1.15 3.673-2.385 6.979-4.328 10.3l-1.402 2.422-1.52 2.59a411202145.03 411202145.03 0 01-5.003 8.649c-2.916 5.073-5.769 10.18-8.622 15.289l-1.76 3.14a2543.31 2543.31 0 00-9.049 16.298c-21.838 39.585-21.838 39.585-43.656 46.347-10.714 2.688-20.934 3.328-31.035-1.723-3.135-2.762-4.94-5.2-5.625-9.312.533-7.727 3.72-14.123 7.375-20.813l1.618-3.027c4.472-8.315 9.135-16.52 13.862-24.691a1003.874 1003.874 0 008.51-15.081 540.76 540.76 0 013.665-6.458c2.611-4.54 5.073-8.921 6.872-13.848C657.868 220.994 673.007 224.628 687 226zm-278.125-2.25l2.355-.063c6.389-.042 11.131 1.09 16.145 5.313 2.692 3.313 2.985 6.541 2.887 10.734C428.227 257.348 412.767 276.998 404 292l-1.459 2.517C393.071 310.789 382.903 325.283 364 331c-10.373 2.571-19.997 3.294-30-1-3.143-2.117-4.567-3.553-5.656-7.195-1.639-10.053 3.964-18.81 8.531-27.43.47-.89.938-1.78 1.421-2.698 5.411-10.161 11.232-20.082 17.107-29.98a992.807 992.807 0 004.277-7.302C368.122 240.92 378.355 229.923 395 225c4.605-1.196 9.146-1.219 13.875-1.25zM395 244c-1.987 2.637-1.987 2.637-3.805 5.828l-1.045 1.755c-3.545 5.988-6.927 12.068-10.275 18.167a13119.781 13119.781 0 01-4.88 8.85 1099.68 1099.68 0 01-7.042 12.533l-1.949 3.434a1334.49 1334.49 0 01-3.7 6.475l-1.671 2.95-1.472 2.574c-1.19 2.493-1.744 4.713-2.161 7.434 3.18-.265 4.63-.602 6.836-2.973 2.815-3.937 5.17-8.06 7.539-12.277l1.564-2.76c1.693-2.994 3.378-5.991 5.061-8.99l1.78-3.168c2.983-5.315 5.96-10.634 8.927-15.957a770.012 770.012 0 016.18-10.875l1.29-2.239a416.69 416.69 0 012.335-3.993c1.905-3.31 2.488-4.825 2.488-8.768-2.638 0-3.77.56-6 2z" fill="#DF4F97"/><path d="M647 101c3.948 3.223 5.349 5.62 5.875 10.688-.824 15.697-13.51 32.182-21.164 45.363-1.727 2.977-3.44 5.963-5.152 8.949-10.615 18.388-21.086 34.403-42.809 40.313-9.199 1.723-19.343 2.129-27.75-2.313-2.956-2.501-4.817-4.33-5.247-8.254-.214-7.258 1.17-12.225 4.497-18.621l1.354-2.716c4.62-9.137 9.708-18.01 14.894-26.835a644.163 644.163 0 004.428-7.73c10.72-18.92 20.988-34.472 43.011-40.719 9.179-2.018 19.552-2.76 28.063 1.875zm-29.572 17.348c-4.017 5.833-7.527 11.879-10.928 18.09l-3.688 6.66-1.898 3.442c-3.112 5.626-6.265 11.23-9.414 16.835-2.174 3.871-4.34 7.746-6.5 11.625l-1.738 3.099-1.668 3.003-1.51 2.705c-1.232 2.084-1.232 2.084-1.084 4.193 2.357.358 2.357.358 5 0 1.912-1.777 1.912-1.777 3.402-4.277l1.808-2.781c2.904-4.773 5.666-9.606 8.352-14.504l3.657-6.598 1.879-3.403c3.132-5.659 6.3-11.297 9.465-16.937a5972.42 5972.42 0 004.937-8.824c.997-1.778 2-3.551 3.011-5.32l1.391-2.45 1.23-2.146c1.015-1.732 1.015-1.732.868-3.76-3.588-.387-3.588-.387-6.572 1.348z" fill="#4BC0E2"/><path d="M588 226c5.532-.05 11.063-.086 16.595-.11 1.88-.01 3.758-.023 5.636-.04 2.714-.025 5.427-.037 8.14-.045l2.51-.032c13.506-.002 13.506-.002 17.831 3.688 2.603 3.11 2.548 6.62 2.288 10.539-3.095 12.462-11.07 26.831-22 34-2.319 1.217-4.522 2.123-7 3l1.438 1.188c1.981 2.298 2.221 3.81 2.562 6.812-2.1 8.378-7.157 16.26-11.398 23.706-3.498 6.129-3.498 6.129-6.25 12.61-1.723 4.153-2.619 6.118-6.352 8.684-8.561 1.544-17.388.786-26 0 1.237-4.012 2.698-7.525 4.793-11.16l1.652-2.888 1.743-3.015c1.175-2.058 2.35-4.116 3.523-6.175l1.714-2.999c1.99-3.49 3.954-6.991 5.888-10.513l1.613-2.922c1.283-2.355 1.283-2.355 1.074-5.328l-4-1-.848 2.21c-1.066 2.58-2.25 4.974-3.586 7.423l-1.445 2.667a503.714 503.714 0 01-3.217 5.74c-2.718 4.799-5.182 9.464-7.123 14.632C563.608 326.92 563.608 326.92 559 330c-9.42 2.283-19.477 1.154-29 0 3.773-7.704 7.735-15.246 12-22.688l3.438-6.042 1.777-3.123c2.951-5.203 5.867-10.425 8.785-15.647a6345.92 6345.92 0 0132-56.5zm16.423 20.712l-1.318 2.374-1.455 2.57-1.462 2.719-1.522 2.695c-2.643 4.226-2.643 4.226-3.666 8.93 2.242.59 2.242.59 5 0 5.228-4.229 8.655-10.807 11-17v-4c-3.74-.478-3.74-.478-6.577 1.712zm-71.638-20.826c1.688 0 3.375.006 5.063.016l2.686.005c2.843.005 5.686.018 8.529.03 1.922.006 3.845.01 5.767.014 4.723.011 9.447.028 14.17.049-.598 4.875-2.092 9.056-4.035 13.527l-.94 2.21a1637.72 1637.72 0 01-2.024 4.728c-1.83 4.253-3.637 8.516-5.446 12.777l-1.138 2.676c-4.04 9.512-7.95 19.076-11.854 28.644C538.169 303.767 532.68 316.916 527 330h-29c1.493-4.478 3.002-8.222 5.125-12.375l1.633-3.21L506 312c-4.127-.048-4.127-.048-8 1-1.404 1.948-2.175 3.918-3.093 6.135-1.9 4.47-3.86 8.046-7.907 10.865-9.684 2.26-20.21 1.024-30 0a496.77 496.77 0 0114.438-21.75l4.246-6.078 2.171-3.104c3.39-4.85 6.767-9.71 10.145-14.568l4-5.75 2-2.875 6-8.625 2.004-2.88c1.32-1.9 2.642-3.798 3.963-5.697a12418.255 12418.255 0 0012.797-18.417c1.425-2.053 2.85-4.106 4.273-6.16l1.928-2.776 1.707-2.46c2.036-2.851 2.036-2.851 6.113-2.974zM529 262l-7.25 10.625-2.066 3.027a3867.682 3867.682 0 00-3.948 5.798 553.113 553.113 0 01-3.113 4.53c-2.037 2.752-2.037 2.752-2.623 6.02h7c1.882-3.784 3.752-7.574 5.61-11.37a778.29 778.29 0 011.911-3.868c.92-1.85 1.828-3.705 2.733-5.563l1.666-3.38c1.428-2.834 1.428-2.834.08-5.819z" fill="#DF4F97"/><path d="M512.758 102.219c2.021 1.988 3.19 3.9 3.36 6.76-.626 6.164-2.627 10.744-5.68 16.083L506 133h-26c.96-3.84 2.27-6.742 4.063-10.25l1.66-3.266L487 117c-6.406 1.923-8.392 4.34-11.812 10-1.386 3.5-1.42 4.488-.188 8a84.992 84.992 0 005.875 5.938c4.612 4.245 8.315 8 9.594 14.414.177 12.88-7.37 23.477-14.469 33.648l-1.574 2.383c-5.92 7.923-18.243 13.908-27.961 15.437-20.42 1.489-20.42 1.489-28.465-3.82-3.373-3.624-3.57-6.359-3.414-11.156.78-5.353 2.946-10.068 5.414-14.844l1.03-2.58c1.393-2.994 2.603-5.104 4.97-7.42 4.672-1.242 9.083-.95 13.875-.625l3.82.137c3.107.117 6.203.281 9.305.488l-1.211 2.206c-3.937 7.186-3.937 7.186-7.664 14.481l-1.242 2.512L442 188c4.922-.788 7.252-1.8 10.313-5.813 3.376-4.997 5.446-9.03 4.687-15.187-1.647-2.479-3.692-4.486-5.812-6.563-9.614-9.681-9.614-9.681-9.625-15.625.506-12.776 9.574-25.655 18.05-34.62 12.658-11.623 37.941-18.515 53.145-7.973zm23.729-2.819c1.443-.012 2.887.003 4.33.041l2.336.007c1.635.01 3.27.032 4.905.065 2.471.049 4.94.061 7.413.067 18.768.135 18.768.135 26.654 3.92 2.46 3.28 2.763 5.356 2.543 9.418-1.496 6.904-5.24 12.977-8.668 19.082l-1.231 2.253c-7.21 13.167-13.696 22.793-28.269 27.997-6.621 1.522-13.753.897-20.5.75l-.617 2.309c-2.369 6.323-5.907 12.038-9.33 17.844-3.804 6.407-3.804 6.407-6.705 13.245-1.593 3.998-3.068 5.84-6.348 8.602-3.18.7-3.18.7-6.715.773l-3.834.09A244.607 244.607 0 01475 205c1.15-3.673 2.385-6.979 4.328-10.3l1.402-2.422 1.52-2.59 3.27-5.653 1.729-2.988c2.94-5.116 5.813-10.27 8.688-15.422a5379.11 5379.11 0 0115.146-26.92 4898.095 4898.095 0 0014.337-25.547l1.682-3.01 1.479-2.65L530 105l1.193-2.787C533 100 533 100 536.487 99.401zM551 119c-2.174 3.788-4.338 7.58-6.5 11.375l-1.879 3.273-1.777 3.125-1.65 2.889c-1.346 2.197-1.346 2.197-1.194 4.338 3.025 0 5.196-.267 7.488-2.355 4.909-6.205 8.137-13.536 11.512-20.645l-2-2h-4z" fill="#4BC0E2"/><path d="M449.711-.386c2.638.011 5.276.017 7.914.021C539.19-.207 539.19-.207 550 7v2l-1.92.056c-67.303 1.936-67.303 1.936-134.154 9.585l-2.054.31c-1.896.287-3.79.586-5.685.887-4.153.211-6.005-.864-9.156-3.393-6.796-4.835-16.58-6.455-24.77-6.761l-3.232-.127-3.341-.12-3.4-.13C359.524 9.2 356.762 9.099 354 9V8c4.016-.795 8.039-1.555 12.063-2.312l3.26-.647C395.95.099 422.72-.513 449.71-.386zM143.875 318.75c9.163 5.918 18.462 8.222 29.125 10.25v1c-27.905 3.163-55.633 3.434-83.69 3.323-4.579-.014-9.158-.009-13.737-.004-24.925.02-49.72-.307-74.573-2.319l-1-4c3.56-1.611 6.345-2.253 10.245-2.271 1.029-.01 2.058-.02 3.118-.032l3.364-.006 7.202-.069 3.808-.028c31.163-.255 61.486-2.029 92.257-6.968 18.127-2.898 18.127-2.898 23.881 1.124z" fill="#4BBFE1"/><path d="M680 143h14c-1.981 5.943-4.37 11.325-7 17h16c-1.056 5.282-2.751 9.14-5 14l-18 1-8 17h-14c2.519-6.127 5.036-12.071 8-18h-17c2.05-6.543 2.05-6.543 3-9l1.031-2.781C655 160 655 160 656.928 159.606c2.439-.1 4.822-.041 7.26.081l2.56.069c2.085.059 4.169.148 6.252.244l.836-2.633c1.714-4.958 3.959-9.608 6.164-14.367z" fill="#4BC0E2"/><path d="M265 303c-1.434 3.662-2.94 4.835-6.453 6.516l-2.78 1.34-3.017 1.394-3.13 1.46c-23.757 10.892-48.2 18.807-74.62 17.29v-2l6.348-1.218c1.88-.36 3.759-.721 5.638-1.083 4.86-.931 9.722-1.83 14.604-2.644 21.522-3.615 39.734-10.104 59.205-20.049C263 303 263 303 265 303z" fill="#88CCE7"/></svg>