<?xml version="1.0" encoding="UTF-8"?>
<svg version="1.1" xmlns="http://www.w3.org/2000/svg" width="722" height="333">
<path d="M0 0 C2.63779798 0.01127224 5.27555786 0.01690821 7.91337585 0.02118683 C89.47876012 0.1794614 89.47876012 0.1794614 100.28874207 7.38611603 C100.28874207 8.04611603 100.28874207 8.70611603 100.28874207 9.38611603 C99.65537933 9.40451035 99.0220166 9.42290466 98.36946106 9.44185638 C50.81311279 10.83542862 3.26635415 12.23319941 -43.71125793 20.38611603 C-43.24582581 20.80989532 -42.78039368 21.23367462 -42.30085754 21.67029572 C-28.81378445 34.14688469 -23.50942282 51.31845989 -22.49250793 69.24158478 C-20.59647226 128.79563765 -56.53068272 187.31311134 -95.37532043 229.80408478 C-97.25861264 231.88578402 -99.09501028 233.99347629 -100.92610168 236.12049103 C-104.97578959 240.75777433 -109.28574404 245.10769334 -113.64875793 249.44861603 C-114.78861145 250.59427032 -114.78861145 250.59427032 -115.95149231 251.76306915 C-120.70793739 256.5113905 -125.59247433 261.03215634 -130.71125793 265.38611603 C-131.33701721 265.92389679 -131.96277649 266.46167755 -132.60749817 267.0157547 C-147.01283857 279.32644573 -162.28599556 290.44560195 -178.60017395 300.10388947 C-181.44554504 301.81590576 -183.76866269 303.4465722 -186.06282043 305.86267853 C-189.67737946 309.3066389 -193.64447354 311.12025792 -198.14875793 313.19861603 C-199.07398254 313.62876007 -199.99920715 314.05890411 -200.95246887 314.50208282 C-224.42298654 325.21421707 -248.6540613 332.88365606 -274.71125793 331.38611603 C-274.71125793 330.72611603 -274.71125793 330.06611603 -274.71125793 329.38611603 C-275.37125793 329.71611603 -276.03125793 330.04611603 -276.71125793 330.38611603 C-304.36087275 334.44934827 -332.54368074 333.81926499 -360.40144348 333.70868683 C-364.98027005 333.69526181 -369.55899908 333.70051743 -374.13783646 333.70557594 C-399.06339065 333.72606479 -423.8582477 333.39855354 -448.71125793 331.38611603 C-449.04125793 330.06611603 -449.37125793 328.74611603 -449.71125793 327.38611603 C-446.15148923 325.77512052 -443.36576247 325.13348108 -439.46662903 325.11487579 C-438.43749893 325.10454819 -437.40836884 325.09422058 -436.34805298 325.08358002 C-435.23814499 325.08158096 -434.128237 325.07958191 -432.98469543 325.07752228 C-430.58373087 325.05485863 -428.18277069 325.03172815 -425.78181458 325.00818634 C-424.52531097 324.99904205 -423.26880737 324.98989777 -421.97422791 324.98047638 C-385.65554283 324.68285935 -349.37914434 322.79077929 -313.71125793 315.38611603 C-314.39188293 314.93236603 -315.07250793 314.47861603 -315.77375793 314.01111603 C-327.90461262 303.1707778 -332.70533339 286.90340931 -333.87971497 271.12244415 C-336.67648673 215.65508779 -303.67440649 161.07306016 -269.21565247 120.18299103 C-267.83774307 118.53719207 -266.48791166 116.87286298 -265.14485168 115.19861603 C-258.18109377 106.65188606 -250.41750285 98.87990298 -242.64875793 91.07361603 C-242.09394745 90.51353851 -241.53913696 89.953461 -240.96751404 89.37641144 C-233.87142243 82.2283247 -226.60793489 75.65099512 -218.71125793 69.38611603 C-216.89617764 67.82661418 -215.08309468 66.26477791 -213.27375793 64.69861603 C-191.09617258 46.20769421 -165.09730772 30.7541809 -138.33625793 19.94861603 C-137.25308289 19.5086026 -137.25308289 19.5086026 -136.14802551 19.05970001 C-122.26214711 13.67437812 -107.95624304 10.37381834 -93.33283997 7.75574493 C-90.63410293 7.26973238 -87.94047661 6.76060363 -85.24641418 6.24939728 C-56.88295795 1.00041093 -28.75252239 -0.13560661 0 0 Z M-157.82063293 70.97986603 C-167.6954065 84.96312202 -171.66286044 101.6592984 -169.24641418 118.65564728 C-166.39481147 133.68983676 -160.26286469 145.87334362 -151.95295715 158.48914337 C-141.02435794 175.18501751 -135.16351946 191.85136789 -131.71125793 211.38611603 C-103.55432544 190.11198925 -83.15706697 144.81299654 -77.20735168 110.99939728 C-75.1395734 95.93880742 -74.2412 80.36212116 -83.17610168 67.23377228 C-89.6832391 59.01181277 -98.50430547 55.60891233 -108.71125793 54.38611603 C-123.4949214 53.13326319 -148.06528838 58.98440532 -157.82063293 70.97986603 Z M-224.71125793 125.38611603 C-252.83214369 155.76096591 -278.5835385 198.77654385 -279.08625793 241.19861603 C-279.10035706 242.05842072 -279.11445618 242.9182254 -279.12898254 243.80408478 C-279.05248336 253.87486313 -276.25751513 262.6550159 -269.71125793 270.38611603 C-262.26588997 277.58016355 -252.93526662 280.37173627 -242.71125793 280.38611603 C-228.68434397 279.43951447 -209.14415956 275.33669302 -198.59407043 265.39002228 C-187.36278386 251.86909574 -184.49871317 234.4496083 -185.71125793 217.38611603 C-187.67102486 201.13901607 -197.77951075 186.03414883 -206.03279114 172.31629181 C-214.93003463 157.45290914 -220.70960002 142.52716254 -223.71125793 125.38611603 C-224.04125793 125.38611603 -224.37125793 125.38611603 -224.71125793 125.38611603 Z " fill="#4BBFE1" transform="translate(449.7112579345703,-0.38611602783203125)"/>
<path d="M0 0 C13.63150276 12.54450793 19.00373928 29.60106113 20.03125 47.7109375 C21.92728568 107.26499038 -14.00692479 165.78246406 -52.8515625 208.2734375 C-54.73485471 210.35513674 -56.57125234 212.46282902 -58.40234375 214.58984375 C-62.45203166 219.22712705 -66.7619861 223.57704606 -71.125 227.91796875 C-71.88490234 228.68173828 -72.64480469 229.44550781 -73.42773438 230.23242188 C-78.18417946 234.98074323 -83.0687164 239.50150906 -88.1875 243.85546875 C-88.81325928 244.39324951 -89.43901855 244.93103027 -90.08374023 245.48510742 C-101.26007475 255.03631533 -112.95935352 263.69718857 -125.1875 271.85546875 C-126.32421143 272.62093018 -126.32421143 272.62093018 -127.48388672 273.40185547 C-128.19947754 273.86994629 -128.91506836 274.33803711 -129.65234375 274.8203125 C-130.28648193 275.23788818 -130.92062012 275.65546387 -131.57397461 276.08569336 C-132.37266968 276.46673218 -132.37266968 276.46673218 -133.1875 276.85546875 C-133.8475 276.52546875 -134.5075 276.19546875 -135.1875 275.85546875 C-134.61644531 275.42878906 -134.04539062 275.00210937 -133.45703125 274.5625 C-112.36128678 258.29630593 -94.74577239 235.99435581 -91.1875 208.85546875 C-91.05607528 207.24029261 -90.93427041 205.6243149 -90.8203125 204.0078125 C-89.75658332 189.32439962 -89.75658332 189.32439962 -86.1875 185.98046875 C-85.25357422 185.27277344 -85.25357422 185.27277344 -84.30078125 184.55078125 C-81.53254973 182.33005578 -79.49980993 179.66857993 -77.375 176.85546875 C-76.95226807 176.29851318 -76.52953613 175.74155762 -76.09399414 175.16772461 C-53.00306008 144.36677416 -29.67610597 102.79162923 -34.875 62.91796875 C-36.46664983 54.39052033 -39.47620205 46.63064145 -46.1875 40.85546875 C-58.46931067 32.84466837 -71.19632392 32.88812827 -85.0859375 35.796875 C-92.01335119 37.47102785 -98.59600585 40.18464889 -105.1875 42.85546875 C-106.65316406 43.44134766 -106.65316406 43.44134766 -108.1484375 44.0390625 C-108.82132812 44.30847656 -109.49421875 44.57789063 -110.1875 44.85546875 C-104.19316796 30.60716118 -79.78794349 21.87785235 -66.54638672 16.47412109 C-51.3639418 10.44639277 -35.95258667 5.39727736 -20.125 1.35546875 C-19.13177734 1.09991211 -18.13855469 0.84435547 -17.11523438 0.58105469 C-4.69664855 -2.45735361 -4.69664855 -2.45735361 0 0 Z " fill="#DE4F97" transform="translate(407.1875,21.14453125)"/>
<path d="M0 0 C0.99 0.495 0.99 0.495 2 1 C0.82244141 2.06927734 0.82244141 2.06927734 -0.37890625 3.16015625 C-3.10848385 5.64352813 -5.82155661 8.14430073 -8.53027344 10.65039062 C-9.68740608 11.71295362 -10.86041926 12.75822387 -12.0390625 13.796875 C-17.94664023 19.22848676 -21.90215041 26.17823869 -26 33 C-26.42410156 33.68835938 -26.84820312 34.37671875 -27.28515625 35.0859375 C-32.59676018 44.59091295 -35.0365573 55.62669261 -35.49682617 66.38720703 C-36.01390941 77.93638424 -38.23605086 83.33054659 -46.38964844 91.31835938 C-49.39778959 94.45966869 -51.90209453 97.97424932 -54.4375 101.5 C-54.97955078 102.25369873 -55.52160156 103.00739746 -56.08007812 103.78393555 C-74.77503734 130.32113076 -90.98390322 162.80972568 -91.375 195.8125 C-91.38909912 196.67230469 -91.40319824 197.53210938 -91.41772461 198.41796875 C-91.34214725 208.36739325 -88.651671 217.45374418 -82 225 C-73.57459766 232.16696337 -63.7093176 234.50955098 -52.80859375 233.7890625 C-41.67339689 232.4462515 -30.80986387 229.33325168 -20.625 224.625 C-18.830625 223.820625 -18.830625 223.820625 -17 223 C-16.34 223.33 -15.68 223.66 -15 224 C-38.45126367 250.8228511 -85.99220897 266.65672046 -120.28125 270.23828125 C-123.91878075 270.35995922 -126.35883505 270.33584831 -129.625 268.625 C-144.21150126 252.50307756 -148.18276358 232.56533199 -147.1640625 211.41455078 C-143.72610277 160.81719701 -114.4174958 112.66617568 -82.50439453 74.796875 C-81.12648513 73.15107604 -79.77665373 71.48674695 -78.43359375 69.8125 C-71.46983584 61.26577003 -63.70624492 53.49378696 -55.9375 45.6875 C-55.38268951 45.12742249 -54.82787903 44.56734497 -54.2562561 43.99029541 C-47.1601645 36.84220867 -39.89667695 30.2648791 -32 24 C-30.1849197 22.44049815 -28.37183674 20.87866188 -26.5625 19.3125 C-18.16220033 12.26959975 -9.03786927 6.18705175 0 0 Z " fill="#DE4F97" transform="translate(263,45)"/>
<path d="M0 0 C0.33 0 0.66 0 1 0 C0.18569343 32.53154762 -12.70665017 56.06761355 -36.25170898 78.46459961 C-38.68433493 80.60100298 -41.26277821 82.27523013 -44 84 C-46.15331949 86.02281528 -48.12379614 88.13737229 -50.1015625 90.33203125 C-53.57913455 93.53308476 -57.13583594 95.58579205 -61.3125 97.75 C-62.13572754 98.17756592 -62.95895508 98.60513184 -63.80712891 99.0456543 C-85.08142442 109.78167868 -109.38375081 118.3144732 -133.4375 118.0625 C-134.26443359 118.05798828 -135.09136719 118.05347656 -135.94335938 118.04882812 C-137.96227146 118.03715811 -139.98114574 118.01922718 -142 118 C-142 117.34 -142 116.68 -142 116 C-142.99 116.495 -142.99 116.495 -144 117 C-171.64961481 121.06323225 -199.8324228 120.43314896 -227.69018555 120.3225708 C-232.26901212 120.30914578 -236.84774115 120.3144014 -241.42657852 120.31945992 C-266.35213272 120.33994876 -291.14698977 120.01243751 -316 118 C-316.33 116.68 -316.66 115.36 -317 114 C-313.44023129 112.38900449 -310.65450453 111.74736505 -306.75537109 111.72875977 C-305.7261705 111.71842209 -304.69696991 111.70808441 -303.63658142 111.69743347 C-302.52674393 111.69544449 -301.41690643 111.69345551 -300.2734375 111.69140625 C-297.87361208 111.66892805 -295.47379121 111.64595934 -293.07397461 111.62255859 C-291.817612 111.61343445 -290.56124939 111.6043103 -289.26681519 111.59490967 C-217.5931714 110.99803677 -121.8414361 107.8414361 -68 54 C-66.43355252 53.11524725 -64.846641 52.26652513 -63.25 51.4375 C-48.30993394 43.38234689 -34.73738506 33.57067386 -22.2578125 22.07421875 C-20.22836537 20.20979587 -18.15965844 18.41225446 -16.0625 16.625 C-12.59779141 13.60757961 -9.31861251 10.42625639 -6.0625 7.1875 C-5.57724854 6.70684082 -5.09199707 6.22618164 -4.59204102 5.73095703 C-1.96583687 3.11408819 -1.96583687 3.11408819 0 0 Z " fill="#6064AC" transform="translate(317,213)"/>
<path d="M0 0 C1.6621554 -0.00688719 3.32431055 -0.0138365 4.98646545 -0.02084351 C10.28915613 -0.0399458 15.59181057 -0.04450328 20.89453125 -0.046875 C21.79245895 -0.04775871 22.69038666 -0.04864243 23.61552429 -0.04955292 C66.66888412 -0.08724909 66.66888412 -0.08724909 87.95703125 1.578125 C88.7697348 1.64124878 89.58243835 1.70437256 90.41976929 1.76940918 C114.47154082 3.71279805 114.47154082 3.71279805 119.70703125 7.203125 C119.70703125 7.863125 119.70703125 8.523125 119.70703125 9.203125 C119.07366852 9.22151932 118.44030579 9.23991364 117.78775024 9.25886536 C74.24364942 10.5348643 30.88264504 12.06582412 -12.29296875 18.203125 C-13.96697754 18.42887207 -13.96697754 18.42887207 -15.67480469 18.65917969 C-52.99590299 23.71342708 -105.33707099 35.36277238 -132.29296875 64.203125 C-132.62296875 64.863125 -132.95296875 65.523125 -133.29296875 66.203125 C-134.62197235 66.89926974 -135.98345004 67.53363842 -137.35546875 68.140625 C-148.93328193 73.7551169 -159.47930487 81.95660434 -169.29296875 90.203125 C-170.29972656 91.02554688 -171.30648437 91.84796875 -172.34375 92.6953125 C-182.35705041 100.98091423 -191.44381809 110.15589871 -200.54394531 119.42236328 C-201.78758619 120.68857163 -203.03799341 121.94814966 -204.29296875 123.203125 C-205.33885976 100.23225948 -197.67198918 78.33260304 -182.29296875 61.203125 C-178.08434563 56.74508169 -173.75318068 52.40921376 -169.29296875 48.203125 C-168.38961792 47.33929199 -168.38961792 47.33929199 -167.46801758 46.45800781 C-162.41258372 41.80596355 -157.04351869 38.52033531 -150.98046875 35.328125 C-150.0147998 34.8134668 -149.04913086 34.29880859 -148.05419922 33.76855469 C-145.14248415 32.22933468 -142.22043111 30.71214709 -139.29296875 29.203125 C-138.47296387 28.77676758 -137.65295898 28.35041016 -136.80810547 27.91113281 C-104.07065416 11.0590584 -66.71807284 4.42628442 -30.29296875 1.203125 C-29.38445663 1.11806198 -28.47594452 1.03299896 -27.53990173 0.94535828 C-18.35543348 0.15144368 -9.21004924 0.02376216 0 0 Z " fill="#6263AB" transform="translate(430.29296875,-0.203125)"/>
<path d="M0 0 C1.16781006 0.00523682 2.33562012 0.01047363 3.53881836 0.01586914 C4.79887695 0.0190918 6.05893555 0.02231445 7.35717773 0.02563477 C8.6976732 0.03399136 10.03816799 0.04245632 11.37866211 0.05102539 C12.72306153 0.05603879 14.06746271 0.06060197 15.41186523 0.06469727 C18.71334151 0.07653051 22.01473014 0.09301568 25.31616211 0.11352539 C24.01143945 4.39106398 22.36482054 8.10334708 20.16381836 11.99243164 C19.5521582 13.0784668 18.94049805 14.16450195 18.31030273 15.28344727 C17.67286133 16.40299805 17.03541992 17.52254883 16.37866211 18.67602539 C15.74508789 19.79944336 15.11151367 20.92286133 14.45874023 22.08032227 C11.79678098 26.79123439 9.11635812 31.48314281 6.31616211 36.11352539 C8.29616211 36.44352539 10.27616211 36.77352539 12.31616211 37.11352539 C12.59234375 36.39060303 12.86852539 35.66768066 13.15307617 34.92285156 C14.2694844 32.22627108 15.52789436 29.72475046 16.92553711 27.16430664 C17.68737305 25.76728516 17.68737305 25.76728516 18.46459961 24.34204102 C18.99311523 23.37975586 19.52163086 22.4174707 20.06616211 21.42602539 C20.57920898 20.48307617 21.09225586 19.54012695 21.62084961 18.56860352 C22.65685921 16.67489249 23.71147116 14.79123983 24.78442383 12.91821289 C26.36249101 10.1423562 26.36249101 10.1423562 27.53930664 7.19946289 C28.88218662 4.2853255 29.95934949 2.30122017 32.31616211 0.11352539 C37.15868271 -1.10817992 41.73713164 -0.83445553 46.69116211 -0.51147461 C47.99956055 -0.46635742 49.30795898 -0.42124023 50.65600586 -0.37475586 C53.88073402 -0.25706505 57.09609906 -0.09292963 60.31616211 0.11352539 C59.64576979 3.42821643 58.40980192 6.05141819 56.79663086 9.01586914 C56.27528564 9.9774292 55.75394043 10.93898926 55.21679688 11.9296875 C54.6514624 12.959729 54.08612793 13.98977051 53.50366211 15.05102539 C52.6256897 16.66086304 52.6256897 16.66086304 51.72998047 18.30322266 C47.54092371 25.95503736 43.25663386 33.54870003 38.90649414 41.10986328 C35.01419665 47.87534937 31.18540256 54.6745596 27.37866211 61.48852539 C22.6689729 69.91628707 17.94320236 78.33456084 13.19116211 86.73852539 C12.65885986 87.68002441 12.12655762 88.62152344 11.578125 89.59155273 C8.83548019 94.43887454 6.07942088 99.27782255 3.31616211 104.11352539 C-6.25383789 104.11352539 -15.82383789 104.11352539 -25.68383789 104.11352539 C-18.73578379 89.73266923 -10.93696206 75.78677127 -2.68383789 62.11352539 C-5.65383789 61.61852539 -5.65383789 61.61852539 -8.68383789 61.11352539 C-9.06995239 62.14944824 -9.06995239 62.14944824 -9.46386719 63.20629883 C-10.84038051 66.48657112 -12.47683521 69.51850992 -14.20336914 72.62915039 C-14.5438176 73.24441589 -14.88426605 73.8596814 -15.23503113 74.49359131 C-16.31939686 76.45176782 -17.40779247 78.40766987 -18.49633789 80.36352539 C-19.21600652 81.66155415 -19.93540995 82.95972999 -20.65454102 84.25805664 C-22.66086798 87.87846103 -24.6720389 91.4961584 -26.68383789 95.11352539 C-28.33383789 98.08352539 -29.98383789 101.05352539 -31.68383789 104.11352539 C-41.25383789 104.11352539 -50.82383789 104.11352539 -60.68383789 104.11352539 C-59.17916148 100.35183436 -57.65959212 97.10367692 -55.69946289 93.59790039 C-55.10117676 92.52443359 -54.50289063 91.4509668 -53.88647461 90.3449707 C-52.91991943 88.62165527 -52.91991943 88.62165527 -51.93383789 86.86352539 C-51.25797259 85.6537023 -50.58235794 84.44373916 -49.90698242 83.23364258 C-48.17134396 80.12552788 -46.4321199 77.01943503 -44.6920166 73.91381836 C-43.13749661 71.13793013 -41.58661487 68.36001179 -40.03540039 65.58227539 C-33.37392424 53.66134765 -26.67417038 41.76230007 -19.94555664 29.87915039 C-17.62968619 25.78874509 -15.32091694 21.6944141 -13.01586914 17.59790039 C-12.1168689 16.00196045 -12.1168689 16.00196045 -11.19970703 14.3737793 C-10.04266716 12.31948564 -8.88685954 10.26449736 -7.73242188 8.20874023 C-7.21623291 7.29302246 -6.70004395 6.37730469 -6.16821289 5.43383789 C-5.4832373 4.21591553 -5.4832373 4.21591553 -4.78442383 2.97338867 C-3.10256266 0.1312373 -3.10256266 0.1312373 0 0 Z " fill="#DF4F97" transform="translate(451.683837890625,225.886474609375)"/>
<path d="M0 0 C-1.25114821 4.05676455 -2.74524381 7.62482505 -4.8359375 11.31640625 C-5.39925781 12.31671875 -5.96257812 13.31703125 -6.54296875 14.34765625 C-7.44982422 15.93900391 -7.44982422 15.93900391 -8.375 17.5625 C-9.00277344 18.67367187 -9.63054687 19.78484375 -10.27734375 20.9296875 C-14.63862426 28.63902174 -19.03433498 36.3289294 -23.44091797 44.01245117 C-28.11113117 52.16470437 -32.70023278 60.36182031 -37.28125 68.56445312 C-37.838125 69.56154297 -38.395 70.55863281 -38.96875 71.5859375 C-39.49178711 72.52332764 -40.01482422 73.46071777 -40.55371094 74.42651367 C-41.80501567 76.65305034 -43.07671862 78.86567704 -44.359375 81.07421875 C-45.71175615 83.48596514 -46.56754207 85.29713792 -47 88 C-42.55024995 85.76983338 -40.63497367 83.37260517 -38.1328125 79.109375 C-37.79226837 78.53483582 -37.45172424 77.96029663 -37.1008606 77.36834717 C-36.0520504 75.58720878 -35.02298362 73.79607811 -34 72 C-33.39897461 70.94748047 -32.79794922 69.89496094 -32.17871094 68.81054688 C-30.39094497 65.63429265 -28.62945512 62.44476472 -26.875 59.25 C-26.22859259 58.07920477 -25.5817734 56.90863682 -24.93457031 55.73828125 C-23.93914433 53.93820701 -22.94388703 52.13804303 -21.94970703 50.33728027 C-14.30779957 36.49549442 -6.59575832 22.69159745 1.3125 9 C2.00617676 7.79730469 2.00617676 7.79730469 2.71386719 6.5703125 C5.87490058 1.12509942 5.87490058 1.12509942 7 0 C9.07262076 -0.08767112 11.14820294 -0.10695873 13.22265625 -0.09765625 C14.48271484 -0.09443359 15.74277344 -0.09121094 17.04101562 -0.08789062 C18.38151109 -0.07953403 19.72200588 -0.07106907 21.0625 -0.0625 C22.40689942 -0.0574866 23.7513006 -0.05292342 25.09570312 -0.04882812 C28.39717941 -0.03699488 31.69856803 -0.02050971 35 0 C33.85084053 3.67304201 32.61484515 6.97901673 30.671875 10.30078125 C30.2092627 11.09967773 29.74665039 11.89857422 29.27001953 12.72167969 C28.76841309 13.57665039 28.26680664 14.43162109 27.75 15.3125 C26.65781091 17.19861502 25.56670991 19.08536044 24.4765625 20.97265625 C23.90583008 21.9589502 23.33509766 22.94524414 22.74707031 23.96142578 C19.830601 29.03386528 16.97827937 34.14183234 14.125 39.25 C13.54435791 40.28648682 12.96371582 41.32297363 12.36547852 42.39086914 C9.33004959 47.81273867 6.31201995 53.24352531 3.31640625 58.6875 C-18.52163853 98.27278855 -18.52163853 98.27278855 -40.33984375 105.03515625 C-51.05364729 107.72298328 -61.27427437 108.36286281 -71.375 103.3125 C-74.51048549 100.55028659 -76.31566011 98.11247669 -77 94 C-76.46661245 86.2727852 -73.28004235 79.87665534 -69.625 73.1875 C-69.09116699 72.18831543 -68.55733398 71.18913086 -68.00732422 70.15966797 C-63.53543719 61.84460946 -58.87187708 53.64057879 -54.14453125 45.46875 C-51.25701213 40.46995618 -48.43659995 35.43574274 -45.63574219 30.38793945 C-44.42837346 28.22718918 -43.20650848 26.07447018 -41.96972656 23.93041992 C-39.35881941 19.38988252 -36.89736864 15.00901219 -35.09765625 10.08203125 C-29.13194014 -5.00601773 -13.99315091 -1.37215349 0 0 Z " fill="#DF4F97" transform="translate(687,226)"/>
<path d="M0 0 C0.77730469 -0.020625 1.55460937 -0.04125 2.35546875 -0.0625 C8.74381345 -0.10544686 13.48612556 1.02778994 18.5 5.25 C21.19220078 8.56347788 21.48475736 11.79133911 21.38671875 15.984375 C19.35201323 33.59824369 3.89199412 53.24780993 -4.875 68.25 C-5.35646484 69.08047852 -5.83792969 69.91095703 -6.33398438 70.76660156 C-15.80399938 87.03874876 -25.97181309 101.53307873 -44.875 107.25 C-55.24807495 109.82122963 -64.87198275 110.54448908 -74.875 106.25 C-78.01789653 104.1333554 -79.442435 102.69703293 -80.53125 99.0546875 C-82.16992519 89.00204547 -76.56702229 80.24523351 -72 71.625 C-71.53094238 70.73474121 -71.06188477 69.84448242 -70.57861328 68.92724609 C-65.16767425 58.76566811 -59.34707556 48.84492139 -53.47167969 38.94677734 C-52.03445015 36.51930985 -50.61179113 34.08414246 -49.1953125 31.64453125 C-40.7531916 17.17035096 -30.52029325 6.17325575 -13.875 1.25 C-9.26959897 0.05421166 -4.72865808 0.03105851 0 0 Z M-13.875 20.25 C-15.86249785 22.88715463 -15.86249785 22.88715463 -17.6796875 26.078125 C-18.19727127 26.94670135 -18.19727127 26.94670135 -18.72531128 27.83282471 C-22.26985948 33.82061955 -25.65163324 39.90089673 -29 46 C-30.29621676 48.35192906 -31.59296466 50.70355559 -32.890625 53.0546875 C-33.21711029 53.64690094 -33.54359558 54.23911438 -33.87997437 54.84927368 C-36.19692472 59.04464769 -38.55051389 63.21799169 -40.921875 67.3828125 C-41.56495605 68.5162207 -42.20803711 69.64962891 -42.87060547 70.81738281 C-44.09863808 72.97864363 -45.33182257 75.13698745 -46.57080078 77.29199219 C-47.1223584 78.26555664 -47.67391602 79.23912109 -48.2421875 80.2421875 C-48.72800293 81.09151855 -49.21381836 81.94084961 -49.71435547 82.81591797 C-50.90308965 85.30890909 -51.45770574 87.52938723 -51.875 90.25 C-48.69518402 89.98501534 -47.24543469 89.64802025 -45.0390625 87.27734375 C-42.22415192 83.33951758 -39.86853764 79.21751747 -37.5 75 C-36.72595825 73.63355347 -36.72595825 73.63355347 -35.9362793 72.23950195 C-34.24341115 69.24621591 -32.55820638 66.24872894 -30.875 63.25 C-30.2876709 62.20440918 -29.7003418 61.15881836 -29.09521484 60.08154297 C-26.11177131 54.76695581 -23.13585386 49.44829 -20.16796875 44.125 C-18.13484521 40.48386593 -16.08026417 36.85762565 -13.98828125 33.25 C-13.56248779 32.51112549 -13.13669434 31.77225098 -12.69799805 31.01098633 C-11.92665162 29.67594554 -11.14866756 28.34470663 -10.36254883 27.01831055 C-8.45764327 23.70853138 -7.875 22.19267442 -7.875 18.25 C-10.51283316 18.25 -11.64574468 18.81054094 -13.875 20.25 Z " fill="#DF4F97" transform="translate(408.875,223.75)"/>
<path d="M0 0 C3.94797656 3.22283801 5.34859031 5.61982459 5.875 10.6875 C5.05101617 26.38544839 -7.63579097 42.87013244 -15.28857422 56.05078125 C-17.01631931 59.0281223 -18.72887066 62.01389076 -20.44140625 65 C-31.05614732 83.38758413 -41.52654322 99.40274159 -63.25 105.3125 C-72.44888003 107.0362541 -82.59272546 107.441579 -91 103 C-93.95614236 100.49864877 -95.81691798 98.67053298 -96.24707031 94.74560547 C-96.46071828 87.48800989 -95.07619337 82.52099915 -91.75 76.125 C-91.30325928 75.22861816 -90.85651855 74.33223633 -90.39624023 73.40869141 C-85.77539803 64.27218912 -80.68760074 55.39916969 -75.50244141 46.57421875 C-74.00519504 44.00890095 -72.53584058 41.42950709 -71.07421875 38.84375 C-60.35311065 19.92425555 -50.08593432 4.37175248 -28.0625 -1.875 C-18.88425008 -3.89325391 -8.51055704 -4.63568803 0 0 Z M-29.57226562 17.34790039 C-33.58899864 23.18113181 -37.09906844 29.22680682 -40.5 35.4375 C-41.72897485 37.65765828 -42.95814747 39.87770708 -44.1875 42.09765625 C-45.12722656 43.80139404 -45.12722656 43.80139404 -46.0859375 45.53955078 C-49.19801941 51.16590906 -52.35114227 56.76916892 -55.5 62.375 C-57.6735304 66.246212 -59.83995338 70.12124963 -62 74 C-62.57363281 75.02254883 -63.14726563 76.04509766 -63.73828125 77.09863281 C-64.28871094 78.08959961 -64.83914063 79.08056641 -65.40625 80.1015625 C-65.90447266 80.99439941 -66.40269531 81.88723633 -66.91601562 82.80712891 C-68.1477123 84.89112441 -68.1477123 84.89112441 -68 87 C-65.64338995 87.35771453 -65.64338995 87.35771453 -63 87 C-61.08849083 85.22278844 -61.08849083 85.22278844 -59.59765625 82.72265625 C-58.70264404 81.3461792 -58.70264404 81.3461792 -57.78955078 79.94189453 C-54.88617194 75.16894569 -52.12364527 70.33574194 -49.4375 65.4375 C-48.21891431 63.2381902 -47.00015912 61.03897431 -45.78125 58.83984375 C-45.16121094 57.71690918 -44.54117188 56.59397461 -43.90234375 55.43701172 C-40.77040193 49.77845462 -37.60229205 44.14022763 -34.4375 38.5 C-32.78960807 35.55964381 -31.14242307 32.61892341 -29.49951172 29.67578125 C-28.50333739 27.89817287 -27.49979111 26.12467485 -26.48876953 24.35546875 C-26.02970215 23.54722656 -25.57063477 22.73898438 -25.09765625 21.90625 C-24.69168213 21.19791016 -24.28570801 20.48957031 -23.86743164 19.75976562 C-22.85262356 18.0280064 -22.85262356 18.0280064 -23 16 C-26.58754286 15.61278639 -26.58754286 15.61278639 -29.57226562 17.34790039 Z " fill="#4BC0E2" transform="translate(647,101)"/>
<path d="M0 0 C5.53180661 -0.0497499 11.06348052 -0.08588418 16.59545898 -0.10986328 C18.47406282 -0.11986873 20.35265129 -0.13347733 22.23120117 -0.15087891 C24.94453748 -0.1753688 27.65766638 -0.1865379 30.37109375 -0.1953125 C31.61384315 -0.21079636 31.61384315 -0.21079636 32.88169861 -0.22659302 C46.38669665 -0.22914265 46.38669665 -0.22914265 50.71238708 3.46066284 C53.31468781 6.57170511 53.26012369 10.08118013 53 14 C49.90491936 26.46177203 41.93039364 40.83107786 31 48 C28.68102806 49.21679897 26.47753823 50.12253854 24 51 C24.474375 51.391875 24.94875 51.78375 25.4375 52.1875 C27.41920979 54.48628336 27.65943136 55.99867044 28 59 C25.90072193 67.37840057 20.84307544 75.26021201 16.60205078 82.70556641 C13.10350581 88.83464344 13.10350581 88.83464344 10.3515625 95.31640625 C8.62854802 99.4689623 7.73297767 101.43416852 4 104 C-4.56113293 105.54402516 -13.38753179 104.78625061 -22 104 C-20.76322425 99.98825211 -19.30208706 96.47456046 -17.20703125 92.83984375 C-16.66199951 91.8869043 -16.11696777 90.93396484 -15.55541992 89.95214844 C-14.98025635 88.95731445 -14.40509277 87.96248047 -13.8125 86.9375 C-12.63722997 84.87935766 -11.46274577 82.82076638 -10.2890625 80.76171875 C-9.44069824 79.27744385 -9.44069824 79.27744385 -8.57519531 77.76318359 C-6.58548448 74.27286319 -4.62139644 70.77160154 -2.6875 67.25 C-2.15511719 66.28578125 -1.62273438 65.3215625 -1.07421875 64.328125 C0.20948078 61.97333187 0.20948078 61.97333187 0 59 C-1.32 58.67 -2.64 58.34 -4 58 C-4.27980713 58.72944824 -4.55961426 59.45889648 -4.84790039 60.21044922 C-5.91356635 62.79072029 -7.0984098 65.18357409 -8.43359375 67.6328125 C-8.91046631 68.51308105 -9.38733887 69.39334961 -9.87866211 70.30029297 C-10.93833091 72.2204759 -12.01128768 74.13337292 -13.09594727 76.03955078 C-15.81353235 80.83853124 -18.27755983 85.50381832 -20.21875 90.671875 C-24.39220381 100.92050267 -24.39220381 100.92050267 -29 104 C-38.41943373 106.28270013 -48.47690845 105.1542858 -58 104 C-54.22723632 96.29643798 -50.26456154 88.75415989 -46 81.3125 C-44.85366906 79.29846022 -43.70785384 77.28412685 -42.5625 75.26953125 C-41.97597656 74.23908691 -41.38945313 73.20864258 -40.78515625 72.14697266 C-37.83380362 66.9441642 -34.91772058 61.72171934 -32 56.5 C-21.43328357 37.60954364 -10.75942976 18.78132258 0 0 Z M16.42260742 20.71240234 C15.98795166 21.49566895 15.5532959 22.27893555 15.10546875 23.0859375 C14.62529297 23.93414062 14.14511719 24.78234375 13.65039062 25.65625 C13.16763672 26.5534375 12.68488281 27.450625 12.1875 28.375 C11.68541016 29.26445312 11.18332031 30.15390625 10.66601562 31.0703125 C8.02345799 35.29610765 8.02345799 35.29610765 7 40 C9.24224658 40.58963678 9.24224658 40.58963678 12 40 C17.22796231 35.77109855 20.65547766 29.19327362 23 23 C23 21.68 23 20.36 23 19 C19.26055775 18.52168278 19.26055775 18.52168278 16.42260742 20.71240234 Z " fill="#DF4F97" transform="translate(588,226)"/>
<path d="M0 0 C1.6874269 0.00015917 3.37485866 0.00585622 5.06225586 0.01586914 C6.39189613 0.01799156 6.39189613 0.01799156 7.74839783 0.02015686 C10.59133215 0.02577324 13.43418892 0.03832848 16.27709961 0.05102539 C18.19962452 0.05603828 20.12215065 0.06060155 22.04467773 0.06469727 C26.7680151 0.07574798 31.49129419 0.09302356 36.21459961 0.11352539 C35.6165359 4.98885039 34.12296065 9.16968096 32.17944336 13.64086914 C31.86915192 14.3699649 31.55886047 15.09906067 31.23916626 15.85025024 C30.56733621 17.42740201 29.89263266 19.0033322 29.21536255 20.57815552 C27.38650633 24.83159394 25.57904903 29.09412365 23.76928711 33.35571289 C23.3937117 34.23866531 23.01813629 35.12161774 22.63117981 36.03132629 C18.592095 45.54373437 14.68132819 55.10767526 10.77709961 64.67602539 C5.38383879 77.88022127 -0.10539217 91.02922074 -5.78540039 104.11352539 C-15.35540039 104.11352539 -24.92540039 104.11352539 -34.78540039 104.11352539 C-33.29288333 99.63597421 -31.78292987 95.89130046 -29.66040039 91.73852539 C-29.12157227 90.67891602 -28.58274414 89.61930664 -28.02758789 88.52758789 C-27.61766602 87.73094727 -27.20774414 86.93430664 -26.78540039 86.11352539 C-30.91229969 86.06521409 -30.91229969 86.06521409 -34.78540039 87.11352539 C-36.18949179 89.06188666 -36.96037413 91.03179002 -37.87792969 93.24853516 C-39.77906879 97.71839236 -41.73876492 101.29412773 -45.78540039 104.11352539 C-55.46905362 106.37419319 -65.99609095 105.13739543 -75.78540039 104.11352539 C-71.15997408 96.72493824 -66.35412907 89.49878211 -61.34790039 82.36352539 C-59.93247587 80.33752559 -58.51711303 78.31148271 -57.10180664 76.28540039 C-56.38524902 75.26124023 -55.66869141 74.23708008 -54.93041992 73.18188477 C-51.53991201 68.33190714 -48.16307428 63.47244524 -44.78540039 58.61352539 C-43.45213866 56.69680891 -42.11880518 54.78014235 -40.78540039 52.86352539 C-40.12540039 51.91477539 -39.46540039 50.96602539 -38.78540039 49.98852539 C-35.78540039 45.67602539 -35.78540039 45.67602539 -32.78540039 41.36352539 C-32.12419189 40.41300293 -31.4629834 39.46248047 -30.78173828 38.4831543 C-29.46074575 36.58429821 -28.13962146 34.68553377 -26.81835938 32.78686523 C-23.67661272 28.27179418 -20.53628774 23.7557537 -17.40054321 19.23651123 C-16.27459041 17.6139145 -15.14816298 15.99164715 -14.02172852 14.36938477 C-12.59641672 12.31657721 -11.1719089 10.26321116 -9.74829102 8.20922852 C-8.7940625 6.83541016 -8.7940625 6.83541016 -7.82055664 5.43383789 C-7.25731689 4.62188965 -6.69407715 3.80994141 -6.11376953 2.97338867 C-4.07742612 0.12228334 -4.07742612 0.12228334 0 0 Z M-3.78540039 36.11352539 C-6.20258648 39.6548378 -8.61905631 43.19663841 -11.03540039 46.73852539 C-12.05827148 48.23706055 -12.05827148 48.23706055 -13.10180664 49.76586914 C-14.41928223 51.69731394 -15.73510149 53.62988985 -17.04907227 55.5637207 C-18.08024102 57.07799608 -19.11618894 58.58906326 -20.16235352 60.09301758 C-22.19906071 62.84524612 -22.19906071 62.84524612 -22.78540039 66.11352539 C-20.47540039 66.11352539 -18.16540039 66.11352539 -15.78540039 66.11352539 C-13.90301309 62.32936823 -12.03369494 58.53912393 -10.17626953 54.74267578 C-9.54246485 53.45185666 -8.90511014 52.16277438 -8.26416016 50.87548828 C-7.34389279 49.02568673 -6.43653912 47.17003129 -5.53149414 45.31274414 C-4.98162842 44.19730225 -4.4317627 43.08186035 -3.86523438 41.93261719 C-2.43776987 39.09866882 -2.43776987 39.09866882 -3.78540039 36.11352539 Z " fill="#DF4F97" transform="translate(532.785400390625,225.886474609375)"/>
<path d="M0 0 C2.02151937 1.98837971 3.18939892 3.90046275 3.36083984 6.76098633 C2.73384274 12.92460416 0.73352418 17.50447514 -2.3203125 22.84375 C-3.7846875 25.463125 -5.2490625 28.0825 -6.7578125 30.78125 C-15.3378125 30.78125 -23.9178125 30.78125 -32.7578125 30.78125 C-31.79781 26.94123999 -30.48769378 24.03974102 -28.6953125 20.53125 C-27.87353516 18.91476563 -27.87353516 18.91476563 -27.03515625 17.265625 C-26.61363281 16.44578125 -26.19210937 15.6259375 -25.7578125 14.78125 C-32.164076 16.70400303 -34.15016672 19.12031906 -37.5703125 24.78125 C-38.95595764 28.28182719 -38.9896829 29.26965262 -37.7578125 32.78125 C-35.84656534 34.90073752 -33.97777937 36.80286109 -31.8828125 38.71875 C-27.2705079 42.96404224 -23.5674247 46.71969548 -22.2890625 53.1328125 C-22.11201337 66.01313689 -29.65820192 76.61052941 -36.7578125 86.78125 C-37.53705078 87.96074219 -37.53705078 87.96074219 -38.33203125 89.1640625 C-44.25093302 97.08700188 -56.57436069 103.07195432 -66.29296875 104.6015625 C-86.71253214 106.09015191 -86.71253214 106.09015191 -94.7578125 100.78125 C-98.13096309 97.15682634 -98.32709272 94.42263865 -98.171875 89.625 C-97.39246235 84.27205272 -95.22618124 79.55725649 -92.7578125 74.78125 C-92.41766113 73.92998535 -92.07750977 73.0787207 -91.72705078 72.20166016 C-90.33464257 69.20731946 -89.12447373 67.09685591 -86.7578125 64.78125 C-82.08611949 63.53899576 -77.67475623 63.83179548 -72.8828125 64.15625 C-71.62210937 64.20136719 -70.36140625 64.24648437 -69.0625 64.29296875 C-65.95607557 64.41063634 -62.85938816 64.57473246 -59.7578125 64.78125 C-60.15758301 65.50932861 -60.55735352 66.23740723 -60.96923828 66.98754883 C-64.90538652 74.17330948 -64.90538652 74.17330948 -68.6328125 81.46875 C-69.04273438 82.29761719 -69.45265625 83.12648438 -69.875 83.98046875 C-70.16632813 84.57472656 -70.45765625 85.16898437 -70.7578125 85.78125 C-65.83577767 84.99372443 -63.50599178 83.98164061 -60.4453125 79.96875 C-57.06849152 74.97105495 -54.99836716 70.93791855 -55.7578125 64.78125 C-57.40479586 62.3025773 -59.44955191 60.29548096 -61.5703125 58.21875 C-71.18416202 48.53695808 -71.18416202 48.53695808 -71.1953125 42.59375 C-70.68929449 29.81679535 -61.62112028 16.93855602 -53.14453125 7.97265625 C-40.48639432 -3.64962659 -15.20383517 -10.54132572 0 0 Z " fill="#4BC0E2" transform="translate(512.7578125,102.21875)"/>
<path d="M0 0 C1.44328571 -0.01274534 2.88699371 0.00271862 4.32983398 0.04077148 C5.48647804 0.04426857 5.48647804 0.04426857 6.66648865 0.0478363 C8.3015343 0.05758192 9.93654573 0.07938824 11.57128906 0.11230469 C14.04276 0.16120893 16.51222239 0.1737574 18.98413086 0.17944336 C37.75260985 0.31417265 37.75260985 0.31417265 45.63842773 4.09936523 C48.09870912 7.37974042 48.40144088 9.45543334 48.18139648 13.51733398 C46.68503168 20.42161371 42.94168222 26.49389845 39.51342773 32.59936523 C39.10705078 33.34299316 38.70067383 34.08662109 38.28198242 34.8527832 C31.07224108 48.01975005 24.58595734 57.64489038 10.01342773 62.84936523 C3.39197893 64.37123048 -3.73933613 63.74675632 -10.48657227 63.59936523 C-10.69024414 64.36120117 -10.89391602 65.12303711 -11.10375977 65.90795898 C-13.47249385 72.23127455 -17.01059701 77.94666441 -20.43359375 83.75195312 C-24.2374111 90.15931732 -24.2374111 90.15931732 -27.13891602 96.99780273 C-28.73165551 100.99509355 -30.20673497 102.83709599 -33.48657227 105.59936523 C-36.66601562 106.30004883 -36.66601562 106.30004883 -40.20141602 106.37280273 C-41.46655029 106.40253174 -42.73168457 106.43226074 -44.03515625 106.46289062 C-49.87141024 106.38752596 -55.6710321 106.09038556 -61.48657227 105.59936523 C-60.33741279 101.92632323 -59.10141742 98.6203485 -57.15844727 95.29858398 C-56.69575439 94.49952637 -56.23306152 93.70046875 -55.75634766 92.87719727 C-55.00405884 91.59498291 -55.00405884 91.59498291 -54.23657227 90.28686523 C-53.14566208 88.40336792 -52.05586455 86.51922583 -50.96704102 84.63452148 C-50.39646973 83.6485498 -49.82589844 82.66257812 -49.23803711 81.64672852 C-46.29758034 76.53064524 -43.42439257 71.37725032 -40.54907227 66.22436523 C-35.52690033 57.23561515 -30.47701971 48.26322092 -25.40332031 39.3034668 C-20.59440425 30.804945 -15.82464979 22.28469024 -11.06665039 13.75756836 C-10.51170898 12.7643457 -9.95676758 11.77112305 -9.38500977 10.74780273 C-8.89693848 9.8730127 -8.40886719 8.99822266 -7.90600586 8.09692383 C-7.43759277 7.27272949 -6.96917969 6.44853516 -6.48657227 5.59936523 C-6.09300537 4.67969971 -5.69943848 3.76003418 -5.29394531 2.8125 C-3.48657227 0.59936523 -3.48657227 0.59936523 0 0 Z M14.51342773 19.59936523 C12.3398533 23.38711218 10.17575053 27.18018552 8.01342773 30.97436523 C7.39338867 32.05459961 6.77334961 33.13483398 6.13452148 34.24780273 C5.25473633 35.79467773 5.25473633 35.79467773 4.35717773 37.37280273 C3.81254883 38.32590332 3.26791992 39.27900391 2.70678711 40.26098633 C1.3619065 42.45872244 1.3619065 42.45872244 1.51342773 44.59936523 C4.53877015 44.59936523 6.70904281 44.33196778 9.00170898 42.24389648 C13.90997699 36.03910486 17.13846542 28.7087533 20.51342773 21.59936523 C19.85342773 20.93936523 19.19342773 20.27936523 18.51342773 19.59936523 C17.19342773 19.59936523 15.87342773 19.59936523 14.51342773 19.59936523 Z " fill="#4BC0E2" transform="translate(536.486572265625,99.400634765625)"/>
<path d="M0 0 C2.63779798 0.01127224 5.27555786 0.01690821 7.91337585 0.02118683 C89.47876012 0.1794614 89.47876012 0.1794614 100.28874207 7.38611603 C100.28874207 8.04611603 100.28874207 8.70611603 100.28874207 9.38611603 C99.65537933 9.40451035 99.0220166 9.42290466 98.36946106 9.44185638 C31.06612001 11.37860854 31.06612001 11.37860854 -35.78523254 19.02674103 C-36.4630629 19.12909561 -37.14089325 19.2314502 -37.83926392 19.33690643 C-39.73564972 19.62362965 -41.63002757 19.92354327 -43.52424622 20.22425079 C-47.67748858 20.43518995 -49.52934361 19.36025121 -52.68000793 16.83142853 C-59.47587331 11.99590893 -69.26080809 10.37623982 -77.44953918 10.06970978 C-78.5162384 10.02781525 -79.58293762 9.98592072 -80.68196106 9.94275665 C-81.78475403 9.90344025 -82.887547 9.86412384 -84.02375793 9.82361603 C-85.14588684 9.78043243 -86.26801575 9.73724884 -87.42414856 9.69275665 C-90.18640362 9.58696816 -92.94874424 9.48487931 -95.71125793 9.38611603 C-95.71125793 9.05611603 -95.71125793 8.72611603 -95.71125793 8.38611603 C-91.69484954 7.59113798 -87.67247753 6.83063928 -83.64875793 6.07361603 C-82.57303528 5.86027618 -81.49731262 5.64693634 -80.38899231 5.42713165 C-53.76131399 0.48515257 -26.99069051 -0.12729722 0 0 Z " fill="#4BBFE1" transform="translate(449.7112579345703,-0.38611602783203125)"/>
<path d="M0 0 C9.16284233 5.91824923 18.46181012 8.22184285 29.125 10.25 C29.125 10.58 29.125 10.91 29.125 11.25 C1.22021213 14.41313755 -26.50758758 14.68394218 -54.56518555 14.5725708 C-59.14401212 14.55914578 -63.72274115 14.5644014 -68.30157852 14.56945992 C-93.22713272 14.58994876 -118.02198977 14.26243751 -142.875 12.25 C-143.205 10.93 -143.535 9.61 -143.875 8.25 C-140.31523129 6.63900449 -137.52950453 5.99736505 -133.63037109 5.97875977 C-132.601241 5.96843216 -131.5721109 5.95810455 -130.51179504 5.94746399 C-129.40188705 5.94546494 -128.29197906 5.94346588 -127.1484375 5.94140625 C-124.74747294 5.9187426 -122.34651275 5.89561213 -119.94555664 5.87207031 C-118.06080124 5.85835388 -118.06080124 5.85835388 -116.13796997 5.84436035 C-84.9745294 5.58898848 -54.65219356 3.81524175 -23.88110352 -1.12402344 C-5.75366155 -4.02159042 -5.75366155 -4.02159042 0 0 Z " fill="#4BBFE1" transform="translate(143.875,318.75)"/>
<path d="M0 0 C4.62 0 9.24 0 14 0 C12.0188638 5.94340859 9.62993092 11.32488591 7 17 C12.28 17 17.56 17 23 17 C21.94362077 22.28189614 20.24882546 26.13963529 18 31 C12.06 31.33 6.12 31.66 0 32 C-2.64 37.61 -5.28 43.22 -8 49 C-12.62 49 -17.24 49 -22 49 C-19.48114545 42.8730565 -16.96448122 36.92896244 -14 31 C-19.61 31 -25.22 31 -31 31 C-28.94921875 24.45703125 -28.94921875 24.45703125 -28 22 C-27.6596875 21.0821875 -27.319375 20.164375 -26.96875 19.21875 C-25 17 -25 17 -23.0715332 16.60620117 C-20.63313916 16.50612073 -18.24974255 16.56497814 -15.8125 16.6875 C-14.96751953 16.71005859 -14.12253906 16.73261719 -13.25195312 16.75585938 C-11.16721202 16.81475037 -9.08338196 16.90443202 -7 17 C-6.72414063 16.13117188 -6.44828125 15.26234375 -6.1640625 14.3671875 C-4.44996087 9.40894722 -2.20536198 4.758939 0 0 Z " fill="#4BC0E2" transform="translate(680,143)"/>
<path d="M0 0 C-1.43432416 3.6624759 -2.93960428 4.83476115 -6.453125 6.515625 C-7.82960205 7.17957275 -7.82960205 7.17957275 -9.23388672 7.85693359 C-10.2292041 8.31664551 -11.22452148 8.77635742 -12.25 9.25 C-13.2827002 9.73162598 -14.31540039 10.21325195 -15.37939453 10.70947266 C-39.13779424 21.60280927 -63.5812435 29.51831934 -90 28 C-90 27.34 -90 26.68 -90 26 C-87.88415602 25.59327334 -85.76825169 25.18685887 -83.65209961 24.78173828 C-81.77249231 24.42184512 -79.89310344 24.06080959 -78.01391602 23.69873047 C-73.15330039 22.76796574 -68.29177717 21.86872307 -63.41015625 21.0546875 C-41.888044 17.44049199 -23.67579277 10.95063075 -4.20458984 1.00634766 C-2 0 -2 0 0 0 Z " fill="#88CCE7" transform="translate(265,303)"/>
</svg>
